<svg width="205" height="272" xmlns="http://www.w3.org/2000/svg" xmlns:xlink="http://www.w3.org/1999/xlink" xml:space="preserve" overflow="hidden"><g><path d="M0 0C0 0-21.855-32.1038-21.855-51.8475-21.855-63.9162-12.0675-73.7025 0-73.7025 12.0837-73.7025 21.87-63.9162 21.87-51.8475 21.87-32.1038 0 0 0 0" fill="#B5DC17" transform="matrix(1 0 0 -1 104.012 117.122)"/><path d="M0 0C0 12.0712 9.78625 21.86 21.8612 21.86 33.9338 21.86 43.7225 12.0712 43.7225 0 43.7225-19.7525 21.8612-51.8563 21.8612-51.8563 21.8612-51.8563 0-19.7525 0 0" fill="#96A6CF" transform="matrix(1 0 0 -1 85.1002 34.775)"/><path d="M0 0 3.73375 0-6.85-25.3113-8.49375-25.3113-19.0437 0-15.3788 0-7.6375-18.3925 0 0Z" fill="#393536" transform="matrix(1 0 0 -1 19.8396 238.56)"/><path d="M0 0C0.045-1.48375 0.55875-2.705 1.54125-3.66375 2.59-4.715 3.8925-5.24 5.445-5.24 6.58625-5.24 7.56875-5 8.39125-4.52 8.6425-4.38375 8.8825-4.2475 9.11-4.11 9.33875-3.9725 9.5775-3.8075 9.82875-3.61375 10.08-3.41875 10.365-3.18 10.685-2.89375 11.005-2.60875 11.3925-2.26 11.85-1.84875L11.85-6.0625C10.845-6.83875 9.82875-7.44875 8.80125-7.895 7.77375-8.33875 6.61-8.5625 5.3075-8.5625 2.75125-8.5625 0.65-7.70625-0.99375-5.99375-2.6375-4.28125-3.45875-2.1125-3.45875 0.51375-3.45875 1.67875-3.2775 2.77375-2.91125 3.8025-2.5475 4.83-1.98625 5.765-1.23375 6.61125 0.27375 8.3 2.18 9.145 4.48625 9.145 6.7475 9.145 8.5975 8.3575 10.035 6.78125 10.765 5.9825 11.3013 5.0525 11.645 3.99 11.9875 2.92875 12.1575 1.5975 12.1575 0L0 0ZM0.51375 2.70625 8.22 2.70625C8.105 3.09375 7.9625 3.49375 7.79125 3.905 7.62 4.315 7.42 4.635 7.1925 4.86375 6.5525 5.5025 5.66125 5.8225 4.52 5.8225 3.15125 5.8225 2.06625 5.32 1.26625 4.315 1.13 4.1325 0.99875 3.88125 0.8725 3.5625 0.7475 3.2425 0.6275 2.95625 0.51375 2.70625" fill="#393536" transform="matrix(1 0 0 -1 26.1423 255.378)"/><path d="M0 0 0-3.49375C-0.5475-3.74375-0.98125-3.92625-1.30125-4.04125-1.62125-4.15625-1.90625-4.24625-2.1575-4.315-2.70625-4.475-3.3225-4.555-4.0075-4.555-5.33125-4.555-6.405-4.17875-7.2275-3.425-7.68375-3.0375-8.00375-2.56875-8.185-2.02125-8.36875-1.4725-8.46-0.89-8.46-0.27375L-8.46 9.79625-12.6038 9.79625-12.6038 12.8438-8.46 12.8438-8.46 16.7825-6.7125 17.9475-5.10375 17.9475-5.10375 12.8438-0.7875 12.8438-0.7875 9.79625-5.10375 9.79625-5.10375 0.85625C-5.10375 0.24-5.075-0.20625-5.0175-0.47875-4.96125-0.75375-4.90875-0.9125-4.86375-0.95875-4.81875-1.005-4.71-1.06125-4.5375-1.13-4.36625-1.19875-4.04125-1.23375-3.5625-1.23375-3.265-1.23375-2.91125-1.17625-2.5-1.06125-2.295-0.99375-2.0375-0.89625-1.72875-0.77125-1.42125-0.645-0.845-0.38875 0 0" fill="#393536" transform="matrix(1 0 0 -1 53.2336 259.385)"/><path d="M0 0 11.5425-25.2425 7.80875-25.2425 4.11-17.1588-6.19875-17.1588-9.8975-25.2425-13.6662-25.2425-2.08875 0 0 0ZM-4.72625-13.94 2.6375-13.94-1.06125-5.8575-4.72625-13.94Z" fill="#393536" transform="matrix(1 0 0 -1 69.5012 238.389)"/><path d="M0 0 0-19.385C0-20.1388-0.24-20.8525-0.72-21.5263-1.19875-22.1988-1.78625-22.7875-2.48375-23.29-3.18-23.7913-3.91625-24.1912-4.6925-24.4888-5.46875-24.785-6.165-24.9338-6.78125-24.9338-7.5125-24.9338-8.30625-24.8137-9.1625-24.575-10.0188-24.335-10.7438-23.9637-11.3363-23.4612-11.9312-22.9813-12.4563-22.3825-12.9125-21.6625-13.37-20.9437-13.815-19.91-14.2488-18.5637L-10.8238-18.495C-10.48-19.18-10.1388-19.6875-9.79625-20.0187-9.4525-20.35-9.15625-20.595-8.905-20.755-8.65375-20.9375-8.3175-21.075-7.895-21.1663-7.4725-21.2575-7.10125-21.3037-6.78125-21.3037-6.485-21.3037-6.13625-21.235-5.7375-21.0975-5.33875-20.96-4.96125-20.795-4.6075-20.6013-4.2525-20.4075-3.95625-20.2012-3.71625-19.985-3.47625-19.7675-3.35625-19.5688-3.35625-19.385L-3.35625-16.6462C-3.5625-16.7138-3.7675-16.7825-3.97375-16.8512-4.17875-16.9188-4.38375-16.9762-4.59-17.0225-5.52625-17.2725-6.47375-17.3988-7.4325-17.3988-9.83-17.3988-11.8175-16.6112-13.3925-15.035-14.1912-14.2138-14.7787-13.3012-15.1562-12.2962-15.5325-11.2913-15.7212-10.1838-15.7212-8.9725-15.7212-7.65-15.5275-6.4275-15.1388-5.30875-14.7512-4.19-14.1575-3.19625-13.3575-2.32875-11.7362-0.57125-9.6475 0.30875-7.09 0.30875-6.4275 0.30875-5.78875 0.17625-5.17125-0.085-4.555-0.34875-3.93875-0.605-3.3225-0.85625L-3.3225 0 0 0ZM-4.72625-13.8375C-4.47625-13.7225-4.23-13.615-3.99-13.5112-3.75125-13.4088-3.5275-13.3012-3.3225-13.1862L-3.3225-4.35C-3.45875-4.25875-3.62-4.115-3.8025-3.92125-3.985-3.7275-4.20125-3.57375-4.4525-3.45875-5.11625-3.1625-5.88-3.01375-6.7475-3.01375-8.34625-3.01375-9.65875-3.5625-10.6862-4.65875-11.7362-5.7775-12.2612-7.205-12.2612-8.94-12.2612-10.5837-11.7938-11.85-10.8575-12.7413-9.9675-13.7-8.7225-14.1788-7.12375-14.1788-6.12-14.1788-5.32-14.065-4.72625-13.8375" fill="#393536" transform="matrix(1 0 0 -1 98.716 246.541)"/><path d="M0 0C0.365-0.25125 0.69-0.49625 0.97625-0.73625 1.26125-0.97625 1.5525-1.29 1.84875-1.67875L0-4.59C-0.66375-3.97375-1.1425-3.54-1.43875-3.2875-1.73625-3.0375-1.99875-2.8425-2.22625-2.70625-2.615-2.4775-2.93375-2.36375-3.18625-2.36375-3.505-2.36375-3.8475-2.46125-4.2125-2.655-4.57875-2.84875-4.98875-3.1975-5.44625-3.69875-6.29125-4.6125-6.9075-5.42375-7.295-6.13125L-7.295-16.44-10.6525-16.44-10.6525 0.65-7.295 0.65-7.295-1.88375C-7.2725-1.83875-7.19875-1.7075-7.07375-1.49-6.9475-1.27375-6.78125-1.01625-6.57625-0.71875-6.37125-0.42375-6.2-0.2175-6.0625-0.1025-5.46875 0.39875-4.88625 0.70125-4.315 0.805-3.745 0.9075-3.20875 0.95875-2.70625 0.95875-1.74625 0.95875-0.845 0.63875 0 0" fill="#393536" transform="matrix(1 0 0 -1 114.471 247.191)"/><path d="M0 0C1.66625-1.73625 2.49875-3.83625 2.49875-6.3025 2.49875-8.815 1.67625-10.9037 0.03375-12.57-0.8125-13.4388-1.75375-14.0825-2.7925-14.505-3.83125-14.9275-4.9675-15.1388-6.2-15.1388-8.69-15.1388-10.7562-14.2825-12.4-12.57-14.0662-10.835-14.9-8.74625-14.9-6.3025-14.9-3.79-14.0775-1.69-12.4337-1.11022e-15-11.59 0.8675-10.6475 1.51125-9.6075 1.935-8.56875 2.3575-7.4325 2.56875-6.2 2.56875-3.71125 2.56875-1.645 1.7125 0 0M-2.50125-10.2413C-1.47375-9.19125-0.96-7.8775-0.96-6.3025-0.96-4.7725-1.47375-3.45875-2.50125-2.36375-3.5525-1.29-4.785-0.75375-6.2-0.75375-7.63875-0.75375-8.8725-1.27875-9.9-2.33-10.9263-3.425-11.4412-4.75-11.4412-6.3025-11.4412-7.80875-10.9263-9.11125-9.9-10.2063-8.84875-11.28-7.61625-11.8175-6.2-11.8175-4.7625-11.8175-3.52875-11.2913-2.50125-10.2413" fill="#393536" transform="matrix(1 0 0 -1 134.302 248.801)"/><path d="M0 0C-1.3025-1.2325-2.855-1.85-4.65875-1.85-6.02875-1.85-7.26125-1.5975-8.35875-1.09625-8.92875-0.845-9.41375-0.61125-9.81375-0.39375-10.2125-0.1775-10.5387 0.0225-10.79 0.20625L-10.79 2.32875C-10.2175 1.895-9.67125 1.52375-9.14625 1.21625-8.62125 0.9075-8.12875 0.65125-7.6725 0.445-6.76 0.03375-5.85625-0.17125-4.9675-0.17125-3.5525-0.17125-2.365 0.27375-1.405 1.165-0.44625 2.055 0.03375 3.1625 0.03375 4.48625 0.03375 5.87875-0.42375 6.9525-1.33625 7.70625-2.29625 8.4825-3.71125 9.19-5.58375 9.83-7.5025 10.4912-8.89375 11.2688-9.76125 12.1588-10.6525 13.05-11.0975 14.3387-11.0975 16.0287-11.0975 17.6737-10.4475 19.1-9.14625 20.31-7.79875 21.5212-6.235 22.125-4.45375 22.125-3.1525 22.125-1.97625 21.9312-0.925 21.5438-0.4 21.3375 0.02125 21.16 0.34125 21.0125 0.66125 20.8638 0.8775 20.7437 0.99375 20.6525L1.02625 18.6663C0.77625 18.8263 0.46125 18.9975 0.085 19.18-0.29125 19.3625-0.70875 19.5688-1.165 19.7962-2.055 20.23-3.08375 20.4475-4.2475 20.4475-5.64125 20.4475-6.79375 20.025-7.70625 19.18-8.66625 18.3125-9.14625 17.285-9.14625 16.0975-9.14625 14.8187-8.7675 13.86-8.015 13.2212-7.24 12.5575-5.96 11.8962-4.17875 11.2338-1.805 10.3663-0.195 9.465 0.65125 8.5275 1.5175 7.54625 1.95125 6.165 1.95125 4.38375 1.95125 2.69375 1.30125 1.23375 0 0" fill="#393536" transform="matrix(1 0 0 -1 164.887 261.234)"/><path d="M0 0 0 2.67125C-0.7075 1.575-1.46125 0.81-2.26 0.3775-3.105-0.08-3.95-0.30875-4.795-0.30875-6.735-0.30875-8.23125 0.21625-9.28125 1.2675-10.355 2.34-10.89 3.88125-10.89 5.89125L-10.89 15.3775-9.24625 15.3775-9.24625 6.23375C-9.24625 4.68-8.88125 3.47-8.15125 2.6025-7.3975 1.735-6.34625 1.30125-5 1.30125-3.8125 1.30125-2.78625 1.66625-1.91625 2.3975-1.02625 3.1275-0.3875 3.87 0 4.62375L0 15.3775 1.64375 15.3775 1.64375 0 0 0Z" fill="#393536" transform="matrix(1 0 0 -1 183.004 262.775)"/><path d="M0 0C-1.46125-1.59875-3.21875-2.39875-5.275-2.39875-6.1425-2.39875-6.975-2.30625-7.775-2.12375-8.1625-2.01-8.54375-1.87875-8.9225-1.73-9.29875-1.5825-9.68125-1.41625-10.0688-1.23375L-10.0688-9.9675-11.7138-9.9675-11.7138 13.2887-10.0338 13.2887-10.0338 12.4325C-9.41875 12.7975-8.7 13.0825-7.87625 13.2887-7.10125 13.4937-6.34625 13.5975-5.61625 13.5975-3.35625 13.5975-1.48375 12.855-1.11022e-15 11.37 1.46125 9.88625 2.1925 7.9675 2.1925 5.61625 2.1925 3.47 1.46125 1.5975 0 0M-1.43875 10.1375C-2.67125 11.37-4.20125 11.9875-6.0275 11.9875-7.00875 11.9875-7.84375 11.85-8.5275 11.5763-8.89375 11.4388-9.20125 11.3137-9.4525 11.1987-9.7025 11.085-9.90875 10.9825-10.0688 10.8913L-10.0688 0.3425C-9.58875 0.09-9.01875-0.14875-8.35625-0.3775-7.65-0.65125-6.80375-0.78875-5.82125-0.78875-3.95-0.78875-2.45375-0.195-1.335 0.9925-0.19375 2.2025 0.3775 3.7325 0.3775 5.5825 0.3775 7.40875-0.2275 8.9275-1.43875 10.1375" fill="#393536" transform="matrix(1 0 0 -1 202.355 260.686)"/><path d="M0.5 224.356 203.733 224.356 203.733 225.876 0.5 225.876 0.5 224.356Z" fill="#393536"/><path d="M0 0-0.66375 0.83625-0.6875 0.87-0.6925 0.8725C-1.07375 1.43875-2.7175 3.81625-5.215 7.75125-13.575 20.7588-30.13 49.8338-30.0825 68.1038L-30.0788 68.2538C-29.945 82.9175-19.88 94.36-2.7025 94.4837L-2.545 94.4875C9.23 94.445 19.3225 88.7275 24.42 80.6462L29.785 82.9313C23.6438 93.3263 11.38 100.216-2.62625 100.245L-2.73625 100.25-2.755 100.25C-12.7013 100.254-21.0613 96.7062-26.8538 90.8762-32.655 85.0475-35.845 77.0075-35.8425 68.2825L-35.8425 68.2663C-35.7812 54.0837-28.0662 36.6687-20.5 22.46-12.9237 8.3125-5.355-2.49375-5.34375-2.51875L-4.6125-3.45875-4.52875-3.5725C-4.13625-4.135-2.41-6.5975 0.035-10.365 8.55625-23.3525 25.4363-52.4087 25.3862-70.6438L25.3862-70.815C25.2825-85.3712 14.7162-96.9038-2.45-97.04L-2.5125-97.0375-2.51875-97.0375C-14.485-97.0438-24.7338-91.1837-29.7988-82.9375L-35.1463-85.2137C-29.0425-95.77-16.6587-102.794-2.5025-102.8L-2.47125-102.8C7.485-102.8 15.9575-99.2712 21.875-93.4512 27.795-87.6413 31.1488-79.5962 31.1488-70.8412L31.1488-70.815C31.0863-56.615 23.2087-39.2113 15.5-25.015 7.75125-10.845 0.08-0.11 0 0M-33.59-70.2087C-33.7862-68.125-33.8225-66.4413-33.8325-65.8288L-33.8325-65.5363-33.8325-65.485-33.8325-65.4388C-33.8325-59.5025-31.2125-51.5588-27.8612-44.045L-5.5875-44.045C-2.22375-51.5788 0.4025-59.5475 0.3875-65.4887L0.3875-66.4925 6.13375-66.4925 6.14875-65.5863C6.05375-55.6575 0.9175-43.5213-4.16625-33.755-6.71125-28.8787-9.24625-24.6038-11.1512-21.5337-12.105-20.0012-12.8988-18.7675-13.4563-17.9125-13.7338-17.485-13.9538-17.15-14.1012-16.9237L-14.225-16.7375-14.2288-16.71-16.72-13.0513-19.2288-16.7237-19.2325-16.75C-19.8525-17.7125-24.6712-24.8862-29.385-33.9587-34.42-43.6613-39.4762-55.6637-39.595-65.5125L-39.6012-65.6888-39.5913-65.8988C-39.5612-67.3163-39.4575-73.3363-37.9475-78.5775L-32.605-76.3025C-33.0962-74.3613-33.4188-72.1138-33.59-70.2087M-24.1637-36.4375C-21.39-31.1063-18.6112-26.4837-16.72-23.4737-14.8312-26.4837-12.0575-31.1063-9.285-36.4338-8.9675-37.0412-8.6475-37.6588-8.33125-38.2838L-25.115-38.2838C-24.8013-37.6588-24.4837-37.0425-24.1637-36.4375M34.5637 62.32 34.5713 62.3338C34.5438 63.3662 34.4475 70.4163 32.735 76.3587L27.3837 74.0825C27.965 71.84 28.34 69.2238 28.5375 67.0375 28.6675 65.6387 28.7375 64.42 28.775 63.5537 28.7913 63.12 28.8013 62.7738 28.805 62.535L28.8112 62.2638 28.815 62.2038 28.8112 62.0837C28.835 54.1962 24.065 42.6263 19.15 33.385 16.3725 28.1038 13.5913 23.53 11.7037 20.5513 9.81375 23.53 7.0375 28.1038 4.255 33.3825-0.655 42.6263-5.42875 54.1962-5.40875 62.095L-5.40875 62.1712-5.38375 63.095-11.1788 63.095-11.1713 62.1875C-11.0725 52.3462-5.93 40.3375-0.84625 30.6763 1.6975 25.85 4.2375 21.6237 6.14375 18.5875 7.09375 17.0712 7.8875 15.8488 8.44375 15.0025 8.7225 14.5813 8.94 14.2537 9.0875 14.0275L9.2075 13.845 9.21125 13.8237 9.33125 13.65 11.7037 10.2087 14.1963 13.8237 14.2013 13.8575C14.8337 14.8137 19.6575 21.9175 24.3725 30.9025 29.4163 40.5263 34.4812 52.4237 34.5737 62.1875L34.5737 62.2575 34.5637 62.32Z" fill="#393536" transform="matrix(1 0 0 -1 107.496 100.75)"/></g></svg>